<mxfile host="app.diagrams.net" modified="2021-11-23T13:30:24.152Z" agent="5.0 (Windows NT 10.0; Win64; x64) AppleWebKit/537.36 (KHTML, like Gecko) Chrome/96.0.4664.45 Safari/537.36" etag="41LCbEn2zq5X0Sq0txf-" version="15.8.3" type="github">
  <diagram id="C5RBs43oDa-KdzZeNtuy" name="Page-1">
    <mxGraphModel dx="1038" dy="1650" grid="1" gridSize="10" guides="1" tooltips="1" connect="1" arrows="1" fold="1" page="1" pageScale="1" pageWidth="827" pageHeight="1169" math="0" shadow="0">
      <root>
        <mxCell id="WIyWlLk6GJQsqaUBKTNV-0" />
        <mxCell id="WIyWlLk6GJQsqaUBKTNV-1" parent="WIyWlLk6GJQsqaUBKTNV-0" />
        <mxCell id="WIyWlLk6GJQsqaUBKTNV-2" value="" style="rounded=0;html=1;jettySize=auto;orthogonalLoop=1;fontSize=11;endArrow=block;endFill=0;endSize=8;strokeWidth=1;shadow=0;labelBackgroundColor=none;edgeStyle=orthogonalEdgeStyle;" parent="WIyWlLk6GJQsqaUBKTNV-1" source="WIyWlLk6GJQsqaUBKTNV-3" edge="1">
          <mxGeometry relative="1" as="geometry">
            <mxPoint x="350" y="100" as="targetPoint" />
          </mxGeometry>
        </mxCell>
        <mxCell id="WIyWlLk6GJQsqaUBKTNV-3" value="Enter Student ID" style="rounded=1;whiteSpace=wrap;html=1;fontSize=12;glass=0;strokeWidth=1;shadow=0;" parent="WIyWlLk6GJQsqaUBKTNV-1" vertex="1">
          <mxGeometry x="290" y="10" width="120" height="40" as="geometry" />
        </mxCell>
        <mxCell id="DwMjR16qjdjr9mGcgVuV-6" style="edgeStyle=orthogonalEdgeStyle;rounded=0;orthogonalLoop=1;jettySize=auto;html=1;exitX=1;exitY=0.5;exitDx=0;exitDy=0;exitPerimeter=0;entryX=1;entryY=0.5;entryDx=0;entryDy=0;" edge="1" parent="WIyWlLk6GJQsqaUBKTNV-1" source="DwMjR16qjdjr9mGcgVuV-0" target="WIyWlLk6GJQsqaUBKTNV-3">
          <mxGeometry relative="1" as="geometry">
            <Array as="points">
              <mxPoint x="460" y="150" />
              <mxPoint x="460" y="30" />
            </Array>
          </mxGeometry>
        </mxCell>
        <mxCell id="DwMjR16qjdjr9mGcgVuV-7" style="edgeStyle=orthogonalEdgeStyle;rounded=0;orthogonalLoop=1;jettySize=auto;html=1;exitX=0.5;exitY=1;exitDx=0;exitDy=0;exitPerimeter=0;" edge="1" parent="WIyWlLk6GJQsqaUBKTNV-1" source="DwMjR16qjdjr9mGcgVuV-0">
          <mxGeometry relative="1" as="geometry">
            <mxPoint x="350" y="240" as="targetPoint" />
          </mxGeometry>
        </mxCell>
        <mxCell id="DwMjR16qjdjr9mGcgVuV-0" value="Decision" style="strokeWidth=2;html=1;shape=mxgraph.flowchart.decision;whiteSpace=wrap;" vertex="1" parent="WIyWlLk6GJQsqaUBKTNV-1">
          <mxGeometry x="300" y="100" width="100" height="100" as="geometry" />
        </mxCell>
        <mxCell id="DwMjR16qjdjr9mGcgVuV-12" style="edgeStyle=orthogonalEdgeStyle;rounded=0;orthogonalLoop=1;jettySize=auto;html=1;exitX=0.5;exitY=1;exitDx=0;exitDy=0;entryX=0.5;entryY=0;entryDx=0;entryDy=0;" edge="1" parent="WIyWlLk6GJQsqaUBKTNV-1" source="DwMjR16qjdjr9mGcgVuV-8" target="DwMjR16qjdjr9mGcgVuV-10">
          <mxGeometry relative="1" as="geometry">
            <Array as="points">
              <mxPoint x="350" y="300" />
              <mxPoint x="350" y="370" />
            </Array>
          </mxGeometry>
        </mxCell>
        <mxCell id="DwMjR16qjdjr9mGcgVuV-59" value="" style="edgeStyle=elbowEdgeStyle;rounded=0;orthogonalLoop=1;jettySize=auto;html=1;" edge="1" parent="WIyWlLk6GJQsqaUBKTNV-1" source="DwMjR16qjdjr9mGcgVuV-8" target="DwMjR16qjdjr9mGcgVuV-0">
          <mxGeometry relative="1" as="geometry" />
        </mxCell>
        <mxCell id="DwMjR16qjdjr9mGcgVuV-8" value="Enter student name&amp;nbsp;" style="rounded=1;whiteSpace=wrap;html=1;" vertex="1" parent="WIyWlLk6GJQsqaUBKTNV-1">
          <mxGeometry x="230" y="240" width="260" height="60" as="geometry" />
        </mxCell>
        <mxCell id="DwMjR16qjdjr9mGcgVuV-26" style="edgeStyle=elbowEdgeStyle;rounded=0;orthogonalLoop=1;jettySize=auto;html=1;exitX=0.5;exitY=1;exitDx=0;exitDy=0;entryX=0.5;entryY=0;entryDx=0;entryDy=0;" edge="1" parent="WIyWlLk6GJQsqaUBKTNV-1" source="DwMjR16qjdjr9mGcgVuV-10" target="DwMjR16qjdjr9mGcgVuV-19">
          <mxGeometry relative="1" as="geometry" />
        </mxCell>
        <mxCell id="DwMjR16qjdjr9mGcgVuV-10" value="Enter Sub 1 marks&amp;nbsp;" style="rounded=1;whiteSpace=wrap;html=1;" vertex="1" parent="WIyWlLk6GJQsqaUBKTNV-1">
          <mxGeometry x="220" y="380" width="260" height="60" as="geometry" />
        </mxCell>
        <mxCell id="DwMjR16qjdjr9mGcgVuV-47" style="edgeStyle=elbowEdgeStyle;rounded=0;orthogonalLoop=1;jettySize=auto;html=1;entryX=0.5;entryY=0;entryDx=0;entryDy=0;" edge="1" parent="WIyWlLk6GJQsqaUBKTNV-1" source="DwMjR16qjdjr9mGcgVuV-13" target="DwMjR16qjdjr9mGcgVuV-20">
          <mxGeometry relative="1" as="geometry" />
        </mxCell>
        <mxCell id="DwMjR16qjdjr9mGcgVuV-13" value="Enter sub 2 marks&amp;nbsp;" style="rounded=1;whiteSpace=wrap;html=1;" vertex="1" parent="WIyWlLk6GJQsqaUBKTNV-1">
          <mxGeometry x="205" y="700" width="290" height="70" as="geometry" />
        </mxCell>
        <mxCell id="DwMjR16qjdjr9mGcgVuV-103" style="edgeStyle=elbowEdgeStyle;rounded=0;orthogonalLoop=1;jettySize=auto;html=1;entryX=0.631;entryY=0.023;entryDx=0;entryDy=0;entryPerimeter=0;" edge="1" parent="WIyWlLk6GJQsqaUBKTNV-1" source="DwMjR16qjdjr9mGcgVuV-15">
          <mxGeometry relative="1" as="geometry">
            <mxPoint x="355.624" y="1841.8400000000001" as="targetPoint" />
          </mxGeometry>
        </mxCell>
        <mxCell id="DwMjR16qjdjr9mGcgVuV-15" value="Declaration of Result&amp;nbsp;" style="rounded=1;whiteSpace=wrap;html=1;" vertex="1" parent="WIyWlLk6GJQsqaUBKTNV-1">
          <mxGeometry x="185" y="1710" width="380" height="56" as="geometry" />
        </mxCell>
        <mxCell id="DwMjR16qjdjr9mGcgVuV-53" style="edgeStyle=elbowEdgeStyle;rounded=0;orthogonalLoop=1;jettySize=auto;html=1;exitX=0.5;exitY=1;exitDx=0;exitDy=0;entryX=0.5;entryY=0;entryDx=0;entryDy=0;" edge="1" parent="WIyWlLk6GJQsqaUBKTNV-1" source="DwMjR16qjdjr9mGcgVuV-16" target="DwMjR16qjdjr9mGcgVuV-21">
          <mxGeometry relative="1" as="geometry" />
        </mxCell>
        <mxCell id="DwMjR16qjdjr9mGcgVuV-16" value="Enter sub n Marks&amp;nbsp;" style="rounded=1;whiteSpace=wrap;html=1;" vertex="1" parent="WIyWlLk6GJQsqaUBKTNV-1">
          <mxGeometry x="205" y="960" width="290" height="60" as="geometry" />
        </mxCell>
        <mxCell id="DwMjR16qjdjr9mGcgVuV-102" style="edgeStyle=elbowEdgeStyle;rounded=0;orthogonalLoop=1;jettySize=auto;html=1;exitX=0.5;exitY=1;exitDx=0;exitDy=0;" edge="1" parent="WIyWlLk6GJQsqaUBKTNV-1" source="DwMjR16qjdjr9mGcgVuV-17" target="DwMjR16qjdjr9mGcgVuV-15">
          <mxGeometry relative="1" as="geometry" />
        </mxCell>
        <mxCell id="DwMjR16qjdjr9mGcgVuV-17" value="Calculation of both exam and practical marks&amp;nbsp;" style="rounded=1;whiteSpace=wrap;html=1;" vertex="1" parent="WIyWlLk6GJQsqaUBKTNV-1">
          <mxGeometry x="170" y="1610" width="380" height="60" as="geometry" />
        </mxCell>
        <mxCell id="DwMjR16qjdjr9mGcgVuV-94" style="edgeStyle=elbowEdgeStyle;rounded=0;orthogonalLoop=1;jettySize=auto;html=1;entryX=0.5;entryY=0;entryDx=0;entryDy=0;" edge="1" parent="WIyWlLk6GJQsqaUBKTNV-1" source="DwMjR16qjdjr9mGcgVuV-18" target="DwMjR16qjdjr9mGcgVuV-92">
          <mxGeometry relative="1" as="geometry" />
        </mxCell>
        <mxCell id="DwMjR16qjdjr9mGcgVuV-18" value="Enter practical marks&amp;nbsp;&amp;nbsp;" style="rounded=1;whiteSpace=wrap;html=1;" vertex="1" parent="WIyWlLk6GJQsqaUBKTNV-1">
          <mxGeometry x="200" y="1320" width="330" height="60" as="geometry" />
        </mxCell>
        <mxCell id="DwMjR16qjdjr9mGcgVuV-22" style="edgeStyle=orthogonalEdgeStyle;rounded=0;orthogonalLoop=1;jettySize=auto;html=1;" edge="1" parent="WIyWlLk6GJQsqaUBKTNV-1">
          <mxGeometry relative="1" as="geometry">
            <mxPoint x="510" y="490" as="targetPoint" />
            <mxPoint x="510" y="490" as="sourcePoint" />
          </mxGeometry>
        </mxCell>
        <mxCell id="DwMjR16qjdjr9mGcgVuV-28" style="edgeStyle=elbowEdgeStyle;rounded=0;orthogonalLoop=1;jettySize=auto;html=1;exitX=0.5;exitY=1;exitDx=0;exitDy=0;entryX=0.5;entryY=0;entryDx=0;entryDy=0;" edge="1" parent="WIyWlLk6GJQsqaUBKTNV-1" source="DwMjR16qjdjr9mGcgVuV-19" target="DwMjR16qjdjr9mGcgVuV-13">
          <mxGeometry relative="1" as="geometry" />
        </mxCell>
        <mxCell id="DwMjR16qjdjr9mGcgVuV-46" style="edgeStyle=elbowEdgeStyle;rounded=0;orthogonalLoop=1;jettySize=auto;html=1;exitX=1;exitY=0.5;exitDx=0;exitDy=0;entryX=1;entryY=0.5;entryDx=0;entryDy=0;" edge="1" parent="WIyWlLk6GJQsqaUBKTNV-1" source="DwMjR16qjdjr9mGcgVuV-19" target="DwMjR16qjdjr9mGcgVuV-10">
          <mxGeometry relative="1" as="geometry">
            <mxPoint x="600" y="410" as="targetPoint" />
            <Array as="points">
              <mxPoint x="600" y="380" />
              <mxPoint x="480" y="400" />
            </Array>
          </mxGeometry>
        </mxCell>
        <mxCell id="DwMjR16qjdjr9mGcgVuV-65" style="edgeStyle=elbowEdgeStyle;rounded=0;orthogonalLoop=1;jettySize=auto;html=1;exitX=0;exitY=0.5;exitDx=0;exitDy=0;" edge="1" parent="WIyWlLk6GJQsqaUBKTNV-1" source="DwMjR16qjdjr9mGcgVuV-19">
          <mxGeometry relative="1" as="geometry">
            <mxPoint x="170" y="600" as="targetPoint" />
            <Array as="points">
              <mxPoint x="170" y="550" />
              <mxPoint x="170" y="556" />
            </Array>
          </mxGeometry>
        </mxCell>
        <mxCell id="DwMjR16qjdjr9mGcgVuV-19" value="Marks should lie &lt;br&gt;between 18-80" style="rhombus;whiteSpace=wrap;html=1;" vertex="1" parent="WIyWlLk6GJQsqaUBKTNV-1">
          <mxGeometry x="260" y="490" width="180" height="132.5" as="geometry" />
        </mxCell>
        <mxCell id="DwMjR16qjdjr9mGcgVuV-48" style="edgeStyle=elbowEdgeStyle;rounded=0;orthogonalLoop=1;jettySize=auto;html=1;exitX=0.5;exitY=1;exitDx=0;exitDy=0;entryX=0.5;entryY=0;entryDx=0;entryDy=0;" edge="1" parent="WIyWlLk6GJQsqaUBKTNV-1" source="DwMjR16qjdjr9mGcgVuV-20" target="DwMjR16qjdjr9mGcgVuV-16">
          <mxGeometry relative="1" as="geometry" />
        </mxCell>
        <mxCell id="DwMjR16qjdjr9mGcgVuV-51" style="edgeStyle=elbowEdgeStyle;rounded=0;orthogonalLoop=1;jettySize=auto;html=1;exitX=1;exitY=0.5;exitDx=0;exitDy=0;entryX=1;entryY=0.5;entryDx=0;entryDy=0;" edge="1" parent="WIyWlLk6GJQsqaUBKTNV-1" source="DwMjR16qjdjr9mGcgVuV-20" target="DwMjR16qjdjr9mGcgVuV-13">
          <mxGeometry relative="1" as="geometry">
            <mxPoint x="540" y="650" as="targetPoint" />
            <Array as="points">
              <mxPoint x="540" y="780" />
            </Array>
          </mxGeometry>
        </mxCell>
        <mxCell id="DwMjR16qjdjr9mGcgVuV-75" style="edgeStyle=elbowEdgeStyle;rounded=0;orthogonalLoop=1;jettySize=auto;html=1;" edge="1" parent="WIyWlLk6GJQsqaUBKTNV-1" source="DwMjR16qjdjr9mGcgVuV-20" target="DwMjR16qjdjr9mGcgVuV-70">
          <mxGeometry relative="1" as="geometry" />
        </mxCell>
        <mxCell id="DwMjR16qjdjr9mGcgVuV-20" value="&lt;span&gt;Marks should lie&lt;/span&gt;&lt;br&gt;&lt;span&gt;between 18-80&lt;/span&gt;" style="rhombus;whiteSpace=wrap;html=1;" vertex="1" parent="WIyWlLk6GJQsqaUBKTNV-1">
          <mxGeometry x="290" y="790" width="120" height="100" as="geometry" />
        </mxCell>
        <mxCell id="DwMjR16qjdjr9mGcgVuV-56" style="edgeStyle=elbowEdgeStyle;rounded=0;orthogonalLoop=1;jettySize=auto;html=1;exitX=1;exitY=0.5;exitDx=0;exitDy=0;entryX=1;entryY=0.5;entryDx=0;entryDy=0;" edge="1" parent="WIyWlLk6GJQsqaUBKTNV-1" source="DwMjR16qjdjr9mGcgVuV-21" target="DwMjR16qjdjr9mGcgVuV-16">
          <mxGeometry relative="1" as="geometry">
            <mxPoint x="550" y="910" as="targetPoint" />
            <Array as="points">
              <mxPoint x="550" y="1030" />
            </Array>
          </mxGeometry>
        </mxCell>
        <mxCell id="DwMjR16qjdjr9mGcgVuV-57" style="edgeStyle=elbowEdgeStyle;rounded=0;orthogonalLoop=1;jettySize=auto;html=1;exitX=0.5;exitY=1;exitDx=0;exitDy=0;" edge="1" parent="WIyWlLk6GJQsqaUBKTNV-1" source="DwMjR16qjdjr9mGcgVuV-21" target="DwMjR16qjdjr9mGcgVuV-18">
          <mxGeometry relative="1" as="geometry" />
        </mxCell>
        <mxCell id="DwMjR16qjdjr9mGcgVuV-21" value="&lt;span&gt;Marks should lie&lt;/span&gt;&lt;br&gt;&lt;span&gt;between 18-80&lt;/span&gt;" style="rhombus;whiteSpace=wrap;html=1;" vertex="1" parent="WIyWlLk6GJQsqaUBKTNV-1">
          <mxGeometry x="270" y="1110" width="160" height="120" as="geometry" />
        </mxCell>
        <mxCell id="DwMjR16qjdjr9mGcgVuV-27" style="edgeStyle=elbowEdgeStyle;rounded=0;orthogonalLoop=1;jettySize=auto;html=1;exitX=0.5;exitY=1;exitDx=0;exitDy=0;entryX=0.503;entryY=1.088;entryDx=0;entryDy=0;entryPerimeter=0;" edge="1" parent="WIyWlLk6GJQsqaUBKTNV-1" source="DwMjR16qjdjr9mGcgVuV-19" target="DwMjR16qjdjr9mGcgVuV-19">
          <mxGeometry relative="1" as="geometry" />
        </mxCell>
        <mxCell id="DwMjR16qjdjr9mGcgVuV-58" value="No&amp;nbsp;" style="text;html=1;align=center;verticalAlign=middle;resizable=0;points=[];autosize=1;strokeColor=none;fillColor=none;" vertex="1" parent="WIyWlLk6GJQsqaUBKTNV-1">
          <mxGeometry x="419" y="150" width="30" height="20" as="geometry" />
        </mxCell>
        <mxCell id="DwMjR16qjdjr9mGcgVuV-60" value="Yes" style="text;html=1;align=center;verticalAlign=middle;resizable=0;points=[];autosize=1;strokeColor=none;fillColor=none;" vertex="1" parent="WIyWlLk6GJQsqaUBKTNV-1">
          <mxGeometry x="360" y="210" width="30" height="20" as="geometry" />
        </mxCell>
        <mxCell id="DwMjR16qjdjr9mGcgVuV-61" value="No&amp;nbsp;" style="text;html=1;align=center;verticalAlign=middle;resizable=0;points=[];autosize=1;strokeColor=none;fillColor=none;" vertex="1" parent="WIyWlLk6GJQsqaUBKTNV-1">
          <mxGeometry x="500" y="540" width="30" height="20" as="geometry" />
        </mxCell>
        <mxCell id="DwMjR16qjdjr9mGcgVuV-62" value="Yes" style="text;html=1;align=center;verticalAlign=middle;resizable=0;points=[];autosize=1;strokeColor=none;fillColor=none;" vertex="1" parent="WIyWlLk6GJQsqaUBKTNV-1">
          <mxGeometry x="360" y="650" width="30" height="20" as="geometry" />
        </mxCell>
        <mxCell id="DwMjR16qjdjr9mGcgVuV-67" style="edgeStyle=elbowEdgeStyle;rounded=0;orthogonalLoop=1;jettySize=auto;html=1;exitX=0.5;exitY=1;exitDx=0;exitDy=0;entryX=0;entryY=0.5;entryDx=0;entryDy=0;" edge="1" parent="WIyWlLk6GJQsqaUBKTNV-1" source="DwMjR16qjdjr9mGcgVuV-66" target="DwMjR16qjdjr9mGcgVuV-13">
          <mxGeometry relative="1" as="geometry">
            <mxPoint x="200" y="750" as="targetPoint" />
            <Array as="points">
              <mxPoint x="170" y="710" />
            </Array>
          </mxGeometry>
        </mxCell>
        <mxCell id="DwMjR16qjdjr9mGcgVuV-66" value="Display Fail" style="rounded=0;whiteSpace=wrap;html=1;" vertex="1" parent="WIyWlLk6GJQsqaUBKTNV-1">
          <mxGeometry x="110" y="600" width="120" height="60" as="geometry" />
        </mxCell>
        <mxCell id="DwMjR16qjdjr9mGcgVuV-68" value="&amp;lt;18" style="text;html=1;align=center;verticalAlign=middle;resizable=0;points=[];autosize=1;strokeColor=none;fillColor=none;" vertex="1" parent="WIyWlLk6GJQsqaUBKTNV-1">
          <mxGeometry x="195" y="530" width="40" height="20" as="geometry" />
        </mxCell>
        <mxCell id="DwMjR16qjdjr9mGcgVuV-76" style="edgeStyle=elbowEdgeStyle;rounded=0;orthogonalLoop=1;jettySize=auto;html=1;exitX=0.5;exitY=1;exitDx=0;exitDy=0;" edge="1" parent="WIyWlLk6GJQsqaUBKTNV-1" source="DwMjR16qjdjr9mGcgVuV-70">
          <mxGeometry relative="1" as="geometry">
            <mxPoint x="200" y="991.6000366210938" as="targetPoint" />
          </mxGeometry>
        </mxCell>
        <mxCell id="DwMjR16qjdjr9mGcgVuV-70" value="Display Fail" style="rounded=0;whiteSpace=wrap;html=1;" vertex="1" parent="WIyWlLk6GJQsqaUBKTNV-1">
          <mxGeometry x="100" y="810" width="120" height="60" as="geometry" />
        </mxCell>
        <mxCell id="DwMjR16qjdjr9mGcgVuV-77" value="No&amp;nbsp;" style="text;html=1;align=center;verticalAlign=middle;resizable=0;points=[];autosize=1;strokeColor=none;fillColor=none;" vertex="1" parent="WIyWlLk6GJQsqaUBKTNV-1">
          <mxGeometry x="470" y="810" width="30" height="20" as="geometry" />
        </mxCell>
        <mxCell id="DwMjR16qjdjr9mGcgVuV-78" value="Yes" style="text;html=1;align=center;verticalAlign=middle;resizable=0;points=[];autosize=1;strokeColor=none;fillColor=none;" vertex="1" parent="WIyWlLk6GJQsqaUBKTNV-1">
          <mxGeometry x="360" y="920" width="30" height="20" as="geometry" />
        </mxCell>
        <mxCell id="DwMjR16qjdjr9mGcgVuV-79" value="&amp;lt;18" style="text;html=1;align=center;verticalAlign=middle;resizable=0;points=[];autosize=1;strokeColor=none;fillColor=none;" vertex="1" parent="WIyWlLk6GJQsqaUBKTNV-1">
          <mxGeometry x="235" y="810" width="40" height="20" as="geometry" />
        </mxCell>
        <mxCell id="DwMjR16qjdjr9mGcgVuV-80" value="No&amp;nbsp;" style="text;html=1;align=center;verticalAlign=middle;resizable=0;points=[];autosize=1;strokeColor=none;fillColor=none;" vertex="1" parent="WIyWlLk6GJQsqaUBKTNV-1">
          <mxGeometry x="465" y="1140" width="30" height="20" as="geometry" />
        </mxCell>
        <mxCell id="DwMjR16qjdjr9mGcgVuV-81" value="Yes" style="text;html=1;align=center;verticalAlign=middle;resizable=0;points=[];autosize=1;strokeColor=none;fillColor=none;" vertex="1" parent="WIyWlLk6GJQsqaUBKTNV-1">
          <mxGeometry x="355" y="1260" width="30" height="20" as="geometry" />
        </mxCell>
        <mxCell id="DwMjR16qjdjr9mGcgVuV-89" style="edgeStyle=elbowEdgeStyle;rounded=0;orthogonalLoop=1;jettySize=auto;html=1;" edge="1" parent="WIyWlLk6GJQsqaUBKTNV-1" source="DwMjR16qjdjr9mGcgVuV-82">
          <mxGeometry relative="1" as="geometry">
            <mxPoint x="200" y="1340" as="targetPoint" />
            <Array as="points">
              <mxPoint x="145" y="1340" />
            </Array>
          </mxGeometry>
        </mxCell>
        <mxCell id="DwMjR16qjdjr9mGcgVuV-82" value="Display Fail" style="rounded=0;whiteSpace=wrap;html=1;" vertex="1" parent="WIyWlLk6GJQsqaUBKTNV-1">
          <mxGeometry x="85" y="1140" width="120" height="60" as="geometry" />
        </mxCell>
        <mxCell id="DwMjR16qjdjr9mGcgVuV-84" style="edgeStyle=elbowEdgeStyle;rounded=0;orthogonalLoop=1;jettySize=auto;html=1;" edge="1" parent="WIyWlLk6GJQsqaUBKTNV-1">
          <mxGeometry relative="1" as="geometry">
            <mxPoint x="270" y="1169.5" as="sourcePoint" />
            <mxPoint x="200" y="1169.5" as="targetPoint" />
            <Array as="points">
              <mxPoint x="220" y="1181.5" />
            </Array>
          </mxGeometry>
        </mxCell>
        <mxCell id="DwMjR16qjdjr9mGcgVuV-90" value="&amp;lt;18" style="text;html=1;align=center;verticalAlign=middle;resizable=0;points=[];autosize=1;strokeColor=none;fillColor=none;" vertex="1" parent="WIyWlLk6GJQsqaUBKTNV-1">
          <mxGeometry x="220" y="1140" width="40" height="20" as="geometry" />
        </mxCell>
        <mxCell id="DwMjR16qjdjr9mGcgVuV-95" style="edgeStyle=elbowEdgeStyle;rounded=0;orthogonalLoop=1;jettySize=auto;html=1;exitX=0.5;exitY=1;exitDx=0;exitDy=0;entryX=0.5;entryY=0;entryDx=0;entryDy=0;" edge="1" parent="WIyWlLk6GJQsqaUBKTNV-1" source="DwMjR16qjdjr9mGcgVuV-92" target="DwMjR16qjdjr9mGcgVuV-17">
          <mxGeometry relative="1" as="geometry" />
        </mxCell>
        <mxCell id="DwMjR16qjdjr9mGcgVuV-96" style="edgeStyle=elbowEdgeStyle;rounded=0;orthogonalLoop=1;jettySize=auto;html=1;exitX=1;exitY=0.5;exitDx=0;exitDy=0;entryX=1.005;entryY=0.39;entryDx=0;entryDy=0;entryPerimeter=0;" edge="1" parent="WIyWlLk6GJQsqaUBKTNV-1" source="DwMjR16qjdjr9mGcgVuV-92" target="DwMjR16qjdjr9mGcgVuV-18">
          <mxGeometry relative="1" as="geometry">
            <mxPoint x="580" y="1480" as="targetPoint" />
            <Array as="points">
              <mxPoint x="580" y="1480" />
            </Array>
          </mxGeometry>
        </mxCell>
        <mxCell id="DwMjR16qjdjr9mGcgVuV-92" value="&lt;span&gt;Marks should lie&lt;/span&gt;&lt;br&gt;&lt;span&gt;between 1-20&lt;/span&gt;" style="rhombus;whiteSpace=wrap;html=1;" vertex="1" parent="WIyWlLk6GJQsqaUBKTNV-1">
          <mxGeometry x="280" y="1420" width="160" height="120" as="geometry" />
        </mxCell>
        <mxCell id="DwMjR16qjdjr9mGcgVuV-97" value="Yes" style="text;html=1;align=center;verticalAlign=middle;resizable=0;points=[];autosize=1;strokeColor=none;fillColor=none;" vertex="1" parent="WIyWlLk6GJQsqaUBKTNV-1">
          <mxGeometry x="370" y="1570" width="30" height="20" as="geometry" />
        </mxCell>
        <mxCell id="DwMjR16qjdjr9mGcgVuV-98" value="No&amp;nbsp;" style="text;html=1;align=center;verticalAlign=middle;resizable=0;points=[];autosize=1;strokeColor=none;fillColor=none;" vertex="1" parent="WIyWlLk6GJQsqaUBKTNV-1">
          <mxGeometry x="490" y="1450" width="30" height="20" as="geometry" />
        </mxCell>
        <mxCell id="DwMjR16qjdjr9mGcgVuV-104" value="Stop" style="ellipse;whiteSpace=wrap;html=1;" vertex="1" parent="WIyWlLk6GJQsqaUBKTNV-1">
          <mxGeometry x="299" y="1840" width="120" height="80" as="geometry" />
        </mxCell>
        <mxCell id="DwMjR16qjdjr9mGcgVuV-106" style="edgeStyle=elbowEdgeStyle;rounded=0;orthogonalLoop=1;jettySize=auto;html=1;entryX=0.5;entryY=0;entryDx=0;entryDy=0;" edge="1" parent="WIyWlLk6GJQsqaUBKTNV-1" source="DwMjR16qjdjr9mGcgVuV-105" target="WIyWlLk6GJQsqaUBKTNV-3">
          <mxGeometry relative="1" as="geometry" />
        </mxCell>
        <mxCell id="DwMjR16qjdjr9mGcgVuV-105" value="Start" style="ellipse;whiteSpace=wrap;html=1;" vertex="1" parent="WIyWlLk6GJQsqaUBKTNV-1">
          <mxGeometry x="290" y="-130" width="120" height="80" as="geometry" />
        </mxCell>
      </root>
    </mxGraphModel>
  </diagram>
</mxfile>
